<svg width="104" height="127" viewBox="0 0 104 127" fill="none" xmlns="http://www.w3.org/2000/svg">
<g filter="url(#filter0_d_201_4)">
<circle cx="52" cy="63" r="50" fill="#F3F3F3"/>
</g>
<path d="M64.5781 83.1875C64.5781 81.9688 64.3594 80.8281 63.9219 79.7656C63.5156 78.7031 62.8125 77.7031 61.8125 76.7656C60.7812 75.8594 59.4375 75.0312 57.7812 74.2812C56.1562 73.5 54.125 72.7812 51.6875 72.125C47.9062 71.0938 44.5781 69.8438 41.7031 68.375C38.8594 66.9062 36.5312 65.2969 34.7188 63.5469C32.9062 61.7969 31.5312 59.8594 30.5938 57.7344C29.6875 55.6094 29.2344 53.2969 29.2344 50.7969C29.2344 47.9219 29.8438 45.3125 31.0625 42.9688C32.2812 40.625 33.9688 38.625 36.125 36.9688C38.2812 35.3125 40.8281 34.0469 43.7656 33.1719C46.7031 32.2656 49.8906 31.8125 53.3281 31.8125C56.8906 31.8125 60.1406 32.3281 63.0781 33.3594C66.0469 34.3906 68.5938 35.8281 70.7188 37.6719C72.8438 39.5469 74.5 41.7656 75.6875 44.3281C76.875 46.8906 77.4688 49.7031 77.4688 52.7656H64.625C64.5625 51.2344 64.2812 49.8281 63.7812 48.5469C63.3125 47.2656 62.6094 46.1562 61.6719 45.2188C60.7031 44.3125 59.5 43.6094 58.0625 43.1094C56.6562 42.5781 55 42.3125 53.0938 42.3125C51.3438 42.3125 49.7812 42.5312 48.4062 42.9688C47.0625 43.375 45.9219 43.9531 44.9844 44.7031C44.0469 45.4844 43.3281 46.4062 42.8281 47.4688C42.3594 48.5 42.125 49.625 42.125 50.8438C42.125 52.125 42.4375 53.2812 43.0625 54.3125C43.7188 55.3438 44.6562 56.2656 45.875 57.0781C47.0938 57.9219 48.5625 58.6875 50.2812 59.375C52.0312 60.0625 54 60.7031 56.1875 61.2969C58.5312 61.9531 60.7656 62.75 62.8906 63.6875C65.0156 64.625 66.9688 65.7031 68.75 66.9219C71.4375 68.9219 73.5781 71.25 75.1719 73.9062C76.7656 76.5625 77.5625 79.625 77.5625 83.0938C77.5625 86.0938 76.9531 88.7656 75.7344 91.1094C74.5469 93.4219 72.8906 95.375 70.7656 96.9688C68.6406 98.5938 66.1094 99.8281 63.1719 100.672C60.2344 101.484 57.0312 101.891 53.5625 101.891C50.1562 101.891 46.7812 101.391 43.4375 100.391C40.125 99.3594 37.2344 97.8594 34.7656 95.8906C32.4219 93.9531 30.5625 91.6719 29.1875 89.0469C27.8438 86.4219 27.1719 83.3438 27.1719 79.8125H40.1094C40.1719 81.875 40.5312 83.6406 41.1875 85.1094C41.8438 86.5781 42.7656 87.7812 43.9531 88.7188C45.1094 89.6562 46.5 90.3438 48.125 90.7812C49.7812 91.2188 51.5938 91.4375 53.5625 91.4375C55.3125 91.4375 56.8594 91.2344 58.2031 90.8281C59.5781 90.4219 60.7344 89.8594 61.6719 89.1406C62.6094 88.4219 63.3281 87.5625 63.8281 86.5625C64.3281 85.5312 64.5781 84.4062 64.5781 83.1875Z" fill="#22C55E"/>
<defs>
<filter id="filter0_d_201_4" x="0" y="12" width="104" height="104" filterUnits="userSpaceOnUse" color-interpolation-filters="sRGB">
<feFlood flood-opacity="0" result="BackgroundImageFix"/>
<feColorMatrix in="SourceAlpha" type="matrix" values="0 0 0 0 0 0 0 0 0 0 0 0 0 0 0 0 0 0 127 0" result="hardAlpha"/>
<feOffset dy="1"/>
<feGaussianBlur stdDeviation="1"/>
<feComposite in2="hardAlpha" operator="out"/>
<feColorMatrix type="matrix" values="0 0 0 0 0 0 0 0 0 0 0 0 0 0 0 0 0 0 0.25 0"/>
<feBlend mode="normal" in2="BackgroundImageFix" result="effect1_dropShadow_201_4"/>
<feBlend mode="normal" in="SourceGraphic" in2="effect1_dropShadow_201_4" result="shape"/>
</filter>
</defs>
</svg>
